<mxfile host="app.diagrams.net" modified="2024-01-31T09:52:02.788Z" agent="Mozilla/5.0 (X11; Ubuntu; Linux x86_64; rv:122.0) Gecko/20100101 Firefox/122.0" etag="NMy4-zzYcS7qVFIze3Ri" version="23.0.2" type="device">
  <diagram name="Seite-1" id="nGur89hWKQSs-rslK18y">
    <mxGraphModel dx="845" dy="1178" grid="1" gridSize="10" guides="1" tooltips="1" connect="1" arrows="1" fold="1" page="1" pageScale="1" pageWidth="827" pageHeight="1169" math="0" shadow="0">
      <root>
        <mxCell id="0" />
        <mxCell id="1" parent="0" />
        <mxCell id="eUh4EiCzojKroB5waav7-23" style="edgeStyle=orthogonalEdgeStyle;rounded=0;orthogonalLoop=1;jettySize=auto;html=1;exitX=0.5;exitY=0;exitDx=0;exitDy=0;entryX=0.5;entryY=1;entryDx=0;entryDy=0;" parent="1" source="eUh4EiCzojKroB5waav7-2" target="eUh4EiCzojKroB5waav7-21" edge="1">
          <mxGeometry relative="1" as="geometry">
            <mxPoint x="310" y="811" as="targetPoint" />
          </mxGeometry>
        </mxCell>
        <mxCell id="eUh4EiCzojKroB5waav7-2" value="&lt;h1&gt;&lt;font style=&quot;font-size: 17px;&quot;&gt;&amp;lt;abstract&amp;gt;&lt;/font&gt;&lt;br&gt;PathAlgorithm&lt;br&gt;&lt;/h1&gt;&lt;p&gt;- abstract class for  shortest path algorithms&lt;br&gt;- implements useful functions and members&lt;br&gt;- function &quot;computePath&quot; is abstract and needs to be implementerd by the derived class&lt;br&gt;&lt;/p&gt;" style="text;html=1;strokeColor=#d6b656;fillColor=#fff2cc;spacing=5;spacingTop=-20;whiteSpace=wrap;overflow=hidden;rounded=0;connectable=1;allowArrows=1;snapToPoint=0;absoluteArcSize=0;glass=0;shadow=0;" parent="1" vertex="1">
          <mxGeometry x="480" y="635" width="230" height="180" as="geometry" />
        </mxCell>
        <mxCell id="eUh4EiCzojKroB5waav7-22" value="" style="edgeStyle=orthogonalEdgeStyle;rounded=0;orthogonalLoop=1;jettySize=auto;html=1;exitX=0;exitY=0.5;exitDx=0;exitDy=0;entryX=1;entryY=0.5;entryDx=0;entryDy=0;" parent="1" source="eUh4EiCzojKroB5waav7-21" target="eUh4EiCzojKroB5waav7-9" edge="1">
          <mxGeometry relative="1" as="geometry" />
        </mxCell>
        <mxCell id="eUh4EiCzojKroB5waav7-9" value="&lt;h1&gt;MainWindow&lt;/h1&gt;- handles creation of GUI&lt;br&gt;&lt;div&gt;- conntects signals&amp;nbsp;&lt;/div&gt;&lt;div&gt;- gets user input&lt;br&gt;&lt;/div&gt;- starts finding Path process" style="text;html=1;strokeColor=#666666;fillColor=#f5f5f5;spacing=5;spacingTop=-20;whiteSpace=wrap;overflow=hidden;rounded=0;connectable=1;allowArrows=1;snapToPoint=0;absoluteArcSize=0;glass=0;shadow=0;fontColor=#333333;" parent="1" vertex="1">
          <mxGeometry x="220" y="470" width="230" height="140" as="geometry" />
        </mxCell>
        <mxCell id="q-KpW9gK0hifqCPJCpg6-2" style="edgeStyle=orthogonalEdgeStyle;rounded=0;orthogonalLoop=1;jettySize=auto;html=1;exitX=0.5;exitY=0;exitDx=0;exitDy=0;entryX=0.5;entryY=1;entryDx=0;entryDy=0;endArrow=block;endFill=0;" edge="1" parent="1" source="eUh4EiCzojKroB5waav7-11" target="eUh4EiCzojKroB5waav7-2">
          <mxGeometry relative="1" as="geometry" />
        </mxCell>
        <mxCell id="eUh4EiCzojKroB5waav7-11" value="&lt;div&gt;&lt;h1&gt;&lt;font style=&quot;font-size: 17px;&quot;&gt;&amp;lt;abstract&amp;gt;&lt;br&gt;&lt;/font&gt;AStar&lt;/h1&gt;&lt;/div&gt;&lt;div&gt;- interface for implementing the A* shortest path algorithm&lt;br&gt;&lt;/div&gt;" style="text;html=1;strokeColor=#d6b656;fillColor=#fff2cc;spacing=5;spacingTop=-20;whiteSpace=wrap;overflow=hidden;rounded=0;connectable=1;allowArrows=1;snapToPoint=0;absoluteArcSize=0;glass=0;shadow=0;" parent="1" vertex="1">
          <mxGeometry x="405" y="859" width="180" height="130" as="geometry" />
        </mxCell>
        <mxCell id="q-KpW9gK0hifqCPJCpg6-3" style="edgeStyle=orthogonalEdgeStyle;rounded=0;orthogonalLoop=1;jettySize=auto;html=1;exitX=0.5;exitY=0;exitDx=0;exitDy=0;entryX=0.5;entryY=1;entryDx=0;entryDy=0;endArrow=block;endFill=0;" edge="1" parent="1" source="eUh4EiCzojKroB5waav7-13" target="eUh4EiCzojKroB5waav7-2">
          <mxGeometry relative="1" as="geometry">
            <mxPoint x="600" y="820" as="targetPoint" />
          </mxGeometry>
        </mxCell>
        <mxCell id="eUh4EiCzojKroB5waav7-13" value="&lt;h1&gt;Dijkstra&lt;br&gt;&lt;/h1&gt;&lt;div&gt;- implements the widely known dijkstra shortes path algorithm&lt;br&gt;&lt;/div&gt;" style="text;html=1;strokeColor=#666666;fillColor=#f5f5f5;spacing=5;spacingTop=-20;whiteSpace=wrap;overflow=hidden;rounded=0;fontColor=#333333;connectable=1;allowArrows=1;snapToPoint=0;absoluteArcSize=0;glass=0;shadow=0;" parent="1" vertex="1">
          <mxGeometry x="605" y="859" width="180" height="130" as="geometry" />
        </mxCell>
        <mxCell id="eUh4EiCzojKroB5waav7-15" value="&lt;h1&gt;AStarFast&lt;/h1&gt;&lt;div&gt;- optimized implementation of A* using std::unordered_map&lt;/div&gt;&lt;div&gt;- very fast calculation time of the path &lt;br&gt;&lt;/div&gt;&lt;div&gt;- nearly 10x faster than AStarHeap&lt;br&gt;&lt;/div&gt;" style="text;html=1;strokeColor=#666666;fillColor=#f5f5f5;spacing=5;spacingTop=-20;whiteSpace=wrap;overflow=hidden;rounded=0;fontColor=#333333;connectable=1;allowArrows=1;snapToPoint=0;absoluteArcSize=0;glass=0;shadow=0;" parent="1" vertex="1">
          <mxGeometry x="310" y="1029" width="180" height="140" as="geometry" />
        </mxCell>
        <mxCell id="q-KpW9gK0hifqCPJCpg6-5" style="edgeStyle=orthogonalEdgeStyle;rounded=0;orthogonalLoop=1;jettySize=auto;html=1;exitX=0.5;exitY=0;exitDx=0;exitDy=0;endArrow=block;endFill=0;" edge="1" parent="1" source="eUh4EiCzojKroB5waav7-17">
          <mxGeometry relative="1" as="geometry">
            <mxPoint x="495" y="989" as="targetPoint" />
          </mxGeometry>
        </mxCell>
        <mxCell id="eUh4EiCzojKroB5waav7-17" value="&lt;h1&gt;AStarHeap&lt;/h1&gt;&lt;div&gt;- standard implementation of the A* algorithm using a std::make_heap&lt;br&gt;&lt;/div&gt;" style="text;html=1;strokeColor=#666666;fillColor=#f5f5f5;spacing=5;spacingTop=-20;whiteSpace=wrap;overflow=hidden;rounded=0;fontColor=#333333;connectable=1;allowArrows=1;snapToPoint=0;absoluteArcSize=0;glass=0;shadow=0;" parent="1" vertex="1">
          <mxGeometry x="500" y="1029" width="180" height="140" as="geometry" />
        </mxCell>
        <mxCell id="eUh4EiCzojKroB5waav7-21" value="&lt;h1&gt;Factory&lt;/h1&gt;&lt;div&gt;- creates an instance of the selected algorithm and provides a unique pointer to the object&lt;br&gt;&lt;/div&gt;" style="text;html=1;strokeColor=#666666;fillColor=#f5f5f5;spacing=5;spacingTop=-20;whiteSpace=wrap;overflow=hidden;rounded=0;fontColor=#333333;connectable=1;allowArrows=1;snapToPoint=0;absoluteArcSize=0;glass=0;shadow=0;" parent="1" vertex="1">
          <mxGeometry x="480" y="470" width="230" height="140" as="geometry" />
        </mxCell>
        <mxCell id="eUh4EiCzojKroB5waav7-25" style="edgeStyle=orthogonalEdgeStyle;rounded=0;orthogonalLoop=1;jettySize=auto;html=1;exitX=0.5;exitY=0;exitDx=0;exitDy=0;entryX=0.5;entryY=1;entryDx=0;entryDy=0;" parent="1" source="eUh4EiCzojKroB5waav7-24" target="eUh4EiCzojKroB5waav7-9" edge="1">
          <mxGeometry relative="1" as="geometry" />
        </mxCell>
        <mxCell id="eUh4EiCzojKroB5waav7-24" value="&lt;h1&gt;Grid&lt;/h1&gt;&lt;div&gt;- inherits from QGraphicsScene&lt;/div&gt;&lt;div&gt;- gets user input regarding to start, goal, obstacles selection&lt;br&gt;&lt;/div&gt;&lt;div&gt;- handles rendering of the grid&lt;br&gt;&lt;/div&gt;" style="text;html=1;strokeColor=#666666;fillColor=#f5f5f5;spacing=5;spacingTop=-20;whiteSpace=wrap;overflow=hidden;rounded=0;fontColor=#333333;" parent="1" vertex="1">
          <mxGeometry x="240" y="650" width="190" height="120" as="geometry" />
        </mxCell>
        <mxCell id="eUh4EiCzojKroB5waav7-27" style="edgeStyle=orthogonalEdgeStyle;rounded=0;orthogonalLoop=1;jettySize=auto;html=1;exitX=0;exitY=0.5;exitDx=0;exitDy=0;entryX=1;entryY=0.5;entryDx=0;entryDy=0;" parent="1" source="eUh4EiCzojKroB5waav7-26" target="eUh4EiCzojKroB5waav7-2" edge="1">
          <mxGeometry relative="1" as="geometry" />
        </mxCell>
        <mxCell id="eUh4EiCzojKroB5waav7-26" value="&lt;h1&gt;Stats&lt;/h1&gt;&lt;div&gt;- tracks the statistics (e.g. length of path, calculation time)&lt;/div&gt;&lt;div&gt;- provides a readable string for output&lt;br&gt;&lt;/div&gt;" style="text;html=1;strokeColor=#666666;fillColor=#f5f5f5;spacing=5;spacingTop=-20;whiteSpace=wrap;overflow=hidden;rounded=0;fontColor=#333333;" parent="1" vertex="1">
          <mxGeometry x="740" y="657.5" width="155" height="135" as="geometry" />
        </mxCell>
        <mxCell id="q-KpW9gK0hifqCPJCpg6-4" style="edgeStyle=orthogonalEdgeStyle;rounded=0;orthogonalLoop=1;jettySize=auto;html=1;exitX=0.5;exitY=0;exitDx=0;exitDy=0;entryX=0.5;entryY=1;entryDx=0;entryDy=0;endArrow=block;endFill=0;" edge="1" parent="1" source="eUh4EiCzojKroB5waav7-15" target="eUh4EiCzojKroB5waav7-11">
          <mxGeometry relative="1" as="geometry" />
        </mxCell>
        <mxCell id="q-KpW9gK0hifqCPJCpg6-7" value="" style="endArrow=classic;html=1;rounded=0;entryX=0.025;entryY=0.464;entryDx=0;entryDy=0;entryPerimeter=0;exitX=1.021;exitY=0.488;exitDx=0;exitDy=0;exitPerimeter=0;" edge="1" parent="1" source="q-KpW9gK0hifqCPJCpg6-8" target="q-KpW9gK0hifqCPJCpg6-9">
          <mxGeometry width="50" height="50" relative="1" as="geometry">
            <mxPoint x="800" y="504.5" as="sourcePoint" />
            <mxPoint x="840" y="504.5" as="targetPoint" />
          </mxGeometry>
        </mxCell>
        <mxCell id="q-KpW9gK0hifqCPJCpg6-11" value="A is member of B" style="edgeLabel;html=1;align=center;verticalAlign=middle;resizable=0;points=[];" vertex="1" connectable="0" parent="q-KpW9gK0hifqCPJCpg6-7">
          <mxGeometry x="-0.247" y="-5" relative="1" as="geometry">
            <mxPoint x="4" y="13" as="offset" />
          </mxGeometry>
        </mxCell>
        <mxCell id="q-KpW9gK0hifqCPJCpg6-8" value="A" style="text;html=1;align=center;verticalAlign=middle;resizable=0;points=[];autosize=1;strokeColor=none;fillColor=none;" vertex="1" parent="1">
          <mxGeometry x="770" y="492.5" width="30" height="30" as="geometry" />
        </mxCell>
        <mxCell id="q-KpW9gK0hifqCPJCpg6-9" value="B" style="text;html=1;align=center;verticalAlign=middle;resizable=0;points=[];autosize=1;strokeColor=none;fillColor=none;" vertex="1" parent="1">
          <mxGeometry x="840" y="492.5" width="30" height="30" as="geometry" />
        </mxCell>
        <mxCell id="q-KpW9gK0hifqCPJCpg6-16" value="" style="endArrow=block;html=1;rounded=0;entryX=0.025;entryY=0.464;entryDx=0;entryDy=0;entryPerimeter=0;exitX=1.021;exitY=0.488;exitDx=0;exitDy=0;exitPerimeter=0;endFill=0;" edge="1" parent="1" source="q-KpW9gK0hifqCPJCpg6-18" target="q-KpW9gK0hifqCPJCpg6-19">
          <mxGeometry width="50" height="50" relative="1" as="geometry">
            <mxPoint x="800" y="554.5" as="sourcePoint" />
            <mxPoint x="840" y="554.5" as="targetPoint" />
          </mxGeometry>
        </mxCell>
        <mxCell id="q-KpW9gK0hifqCPJCpg6-17" value="B is parent of A" style="edgeLabel;html=1;align=center;verticalAlign=middle;resizable=0;points=[];" vertex="1" connectable="0" parent="q-KpW9gK0hifqCPJCpg6-16">
          <mxGeometry x="-0.247" y="-5" relative="1" as="geometry">
            <mxPoint x="4" y="13" as="offset" />
          </mxGeometry>
        </mxCell>
        <mxCell id="q-KpW9gK0hifqCPJCpg6-18" value="A" style="text;html=1;align=center;verticalAlign=middle;resizable=0;points=[];autosize=1;strokeColor=none;fillColor=none;" vertex="1" parent="1">
          <mxGeometry x="770" y="542.5" width="30" height="30" as="geometry" />
        </mxCell>
        <mxCell id="q-KpW9gK0hifqCPJCpg6-19" value="B" style="text;html=1;align=center;verticalAlign=middle;resizable=0;points=[];autosize=1;strokeColor=none;fillColor=none;" vertex="1" parent="1">
          <mxGeometry x="840" y="542.5" width="30" height="30" as="geometry" />
        </mxCell>
        <mxCell id="q-KpW9gK0hifqCPJCpg6-22" value="" style="rounded=0;whiteSpace=wrap;html=1;fillColor=none;" vertex="1" parent="1">
          <mxGeometry x="770" y="477.5" width="100" height="125" as="geometry" />
        </mxCell>
      </root>
    </mxGraphModel>
  </diagram>
</mxfile>
